<?xml version="1.0" encoding="UTF-8"?>
<!DOCTYPE svg PUBLIC "-//W3C//DTD SVG 1.1//EN" "http://www.w3.org/Graphics/SVG/1.1/DTD/svg11.dtd">
<!-- Creator: CorelDRAW 2019 (64 Bit) -->
<svg xmlns="http://www.w3.org/2000/svg" xml:space="preserve" width="16.5162mm" height="17.0368mm" version="1.1" style="shape-rendering:geometricPrecision; text-rendering:geometricPrecision; image-rendering:optimizeQuality; fill-rule:evenodd; clip-rule:evenodd"
viewBox="0 0 59.25 61.11"
 xmlns:xlink="http://www.w3.org/1999/xlink">
 <defs>
  <style type="text/css">
   <![CDATA[
    .str0 {stroke:#231F20;stroke-width:5.06;stroke-miterlimit:22.9256}
    .fil0 {fill:none}
    .fil1 {fill:#231F20}
   ]]>
  </style>
 </defs>
 <g id="Camada_x0020_1">
  <metadata id="CorelCorpID_0Corel-Layer"/>
  <path class="fil0 str0" d="M9.36 2.53l16.58 0c0,0 16.44,15.45 16.44,15.45l0 17.72c-5.09,1.23 -8.87,5.81 -8.87,11.28 0,3.49 1.54,6.63 3.99,8.75 -0.62,0.19 -1.27,0.29 -1.95,0.29l-26.2 0c-3.76,0 -6.83,-3.07 -6.83,-6.83l0 -39.83c0,-3.76 3.07,-6.83 6.83,-6.83z"/>
  <g id="_2935705819104">
   <rect class="fil1" transform="matrix(0.250219 0.250219 -0.718276 0.718276 48.6859 41.5769)" width="7.33" height="12.5"/>
   <rect class="fil1" transform="matrix(0.493411 0.493411 -0.250219 0.250219 41.5569 41.565)" width="18.19" height="7.43"/>
   <circle class="fil1" transform="matrix(0.18062 0.18062 -0.18062 0.18062 40.6275 42.4943)" r="5.15"/>
   <circle class="fil1" transform="matrix(0.18062 0.18062 -0.18062 0.18062 49.6034 51.4702)" r="5.15"/>
   <circle class="fil1" transform="matrix(0.18062 0.18062 -0.18062 0.18062 49.6034 42.4943)" r="5.15"/>
   <circle class="fil1" transform="matrix(0.18062 0.18062 -0.18062 0.18062 40.6275 51.4702)" r="5.15"/>
  </g>
  <circle class="fil0 str0" cx="45.12" cy="46.98" r="11.6"/>
  <polyline class="fil0 str0" points="25.94,2.53 25.94,19.36 42.38,19.36 "/>
 </g>
</svg>
