<?xml version="1.0" encoding="UTF-8"?>
<!DOCTYPE svg PUBLIC "-//W3C//DTD SVG 1.1//EN" "http://www.w3.org/Graphics/SVG/1.1/DTD/svg11.dtd">
<!-- Creator: CorelDRAW 2019 (64 Bit) -->
<svg xmlns="http://www.w3.org/2000/svg" xml:space="preserve" width="16.4414mm" height="16.5569mm" version="1.1" style="shape-rendering:geometricPrecision; text-rendering:geometricPrecision; image-rendering:optimizeQuality; fill-rule:evenodd; clip-rule:evenodd"
viewBox="0 0 47.03 47.36"
 xmlns:xlink="http://www.w3.org/1999/xlink">
 <defs>
  <style type="text/css">
   <![CDATA[
    .fil0 {fill:#231F20}
   ]]>
  </style>
 </defs>
 <g id="Camada_x0020_1">
  <metadata id="CorelCorpID_0Corel-Layer"/>
  <polygon class="fil0" points="20.5,11.39 20.5,2.59 20.66,1.92 21.02,1.23 21.61,0.57 22.58,0 23.97,0 24.72,0.2 25.3,0.6 25.82,1.2 26.17,1.8 26.34,2.44 26.34,16.62 26.36,28.84 34.02,22.6 34.99,22.22 36.09,22.34 36.68,22.68 37.43,23.14 37.93,24.07 38.27,25.42 37.96,26.74 37.37,27.79 36.89,28.2 25.62,37.42 24.68,38.09 24.28,38.22 23.85,38.35 23.26,38.35 22.8,38.26 21.8,37.74 21.19,37.34 9.84,28.7 9.21,27.89 9.01,27.52 8.79,26.75 8.75,25.61 8.98,24.74 9.41,23.99 10.17,23.28 11.21,22.9 12.42,22.94 13.08,23.24 20.46,28.9 "/>
  <polygon class="fil0" points="5.8,41.44 41.02,41.44 41.28,41.44 41.28,38.21 41.44,37.51 41.61,37.19 41.75,36.92 41.87,36.79 42.03,36.61 42.16,36.46 42.31,36.35 42.44,36.23 42.6,36.08 42.78,35.95 43.09,35.8 43.49,35.64 45.01,35.64 45.4,35.77 45.65,35.92 45.92,36.08 46.04,36.19 46.22,36.33 46.35,36.46 46.49,36.6 46.64,36.79 46.78,37.03 46.9,37.28 47.03,37.7 47.03,44.38 47.03,45.28 46.88,45.67 46.76,45.91 46.65,46.09 46.48,46.28 46.23,46.53 45.97,46.75 45.46,47.09 45.08,47.24 44.71,47.36 2.47,47.36 1.98,47.19 1.64,47.04 1.39,46.91 1.17,46.77 1.02,46.62 0.89,46.47 0.76,46.34 0.62,46.21 0.48,46.06 0.35,45.82 0.22,45.61 0.1,45.27 -0,44.71 0.03,38.02 0.09,37.65 0.24,37.3 0.39,37.02 0.55,36.77 0.66,36.63 0.8,36.51 0.97,36.34 1.07,36.23 1.25,36.07 1.49,35.93 1.75,35.79 2.15,35.65 3.59,35.64 4.01,35.78 4.3,35.89 4.57,36.04 4.75,36.17 4.88,36.3 5.04,36.48 5.18,36.66 5.3,36.85 5.52,37.19 5.66,37.6 5.8,37.99 "/>
 </g>
</svg>
