<?xml version="1.0" encoding="UTF-8"?>
<!DOCTYPE svg PUBLIC "-//W3C//DTD SVG 1.1//EN" "http://www.w3.org/Graphics/SVG/1.1/DTD/svg11.dtd">
<!-- Creator: CorelDRAW 2019 (64 Bit) -->
<svg xmlns="http://www.w3.org/2000/svg" xml:space="preserve" width="345.254mm" height="602.853mm" version="1.1" style="shape-rendering:geometricPrecision; text-rendering:geometricPrecision; image-rendering:optimizeQuality; fill-rule:evenodd; clip-rule:evenodd"
viewBox="0 0 8237.09 14382.92"
 xmlns:xlink="http://www.w3.org/1999/xlink">
 <defs>
  <style type="text/css">
   <![CDATA[
    .str1 {stroke:#F39435;stroke-width:42.08;stroke-miterlimit:10}
    .str0 {stroke:#F39435;stroke-width:42.08;stroke-miterlimit:10}
    .fil31 {fill:none;fill-rule:nonzero}
    .fil4 {fill:#FEFEFE;fill-rule:nonzero}
    .fil1 {fill:#FFCA2B;fill-rule:nonzero}
    .fil0 {fill:#F79334;fill-rule:nonzero}
    .fil20 {fill:#F2707D;fill-rule:nonzero}
    .fil3 {fill:#F16667;fill-rule:nonzero}
    .fil27 {fill:#F1613B;fill-rule:nonzero}
    .fil30 {fill:#FCD969;fill-rule:nonzero}
    .fil26 {fill:#F39435;fill-rule:nonzero}
    .fil25 {fill:#F6C62F;fill-rule:nonzero}
    .fil14 {fill:#EAEAE9;fill-rule:nonzero}
    .fil5 {fill:#DC444B;fill-rule:nonzero}
    .fil28 {fill:#E3C496;fill-rule:nonzero}
    .fil22 {fill:#DB6A74;fill-rule:nonzero}
    .fil21 {fill:#D35160;fill-rule:nonzero}
    .fil10 {fill:#C1C0C1;fill-rule:nonzero}
    .fil9 {fill:#BBBBBC;fill-rule:nonzero}
    .fil16 {fill:#A6A6A7;fill-rule:nonzero}
    .fil13 {fill:#9E56A0;fill-rule:nonzero}
    .fil8 {fill:#989897;fill-rule:nonzero}
    .fil32 {fill:#8DC74C;fill-rule:nonzero}
    .fil11 {fill:#843F88;fill-rule:nonzero}
    .fil19 {fill:#58C4C8;fill-rule:nonzero}
    .fil12 {fill:#733978;fill-rule:nonzero}
    .fil6 {fill:#31BFC6;fill-rule:nonzero}
    .fil2 {fill:#3D3D3D;fill-rule:nonzero}
    .fil17 {fill:#23BDBE;fill-rule:nonzero}
    .fil15 {fill:#453D48;fill-rule:nonzero}
    .fil24 {fill:#393B3D;fill-rule:nonzero}
    .fil33 {fill:#47B453;fill-rule:nonzero}
    .fil29 {fill:#2B2B2B;fill-rule:nonzero}
    .fil23 {fill:#282828;fill-rule:nonzero}
    .fil18 {fill:#25A4AB;fill-rule:nonzero}
    .fil7 {fill:#269393;fill-rule:nonzero}
   ]]>
  </style>
 </defs>
 <g id="Camada_x0020_1">
  <metadata id="CorelCorpID_0Corel-Layer"/>
  <g id="_1943315332048">
   <path class="fil0" d="M999.14 8334.27l1646.03 470.32 -1002.99 601.66 -643.05 -1071.97zm-734.02 -519.81l1248.12 2080.65 1946.63 -1167.73 -24.16 -40.37 -3170.58 -872.55z"/>
   <path class="fil1" d="M966.86 8280.47l1646.03 470.32 -994.91 615.11 -651.12 -1085.43zm-725.97 -506.39l1248.13 2080.68 1946.67 -1167.74 -3194.8 -912.93z"/>
   <polygon class="fil2" points="1669.59,9746.45 1649.42,9758.55 1608.67,9690.63 1628.84,9678.53 "/>
   <polygon class="fil2" points="1861.24,9631.48 1841.06,9643.59 1800.32,9575.66 1820.5,9563.57 "/>
   <polygon class="fil2" points="2052.89,9516.52 2032.72,9528.62 1991.97,9460.7 2012.15,9448.59 "/>
   <polygon class="fil2" points="2244.55,9401.55 2224.37,9413.65 2183.63,9345.74 2203.81,9333.63 "/>
   <polygon class="fil2" points="2436.2,9286.58 2416.02,9298.68 2375.27,9230.76 2395.45,9218.67 "/>
   <polygon class="fil2" points="2627.85,9171.62 2607.68,9183.72 2566.94,9115.8 2587.11,9103.69 "/>
   <polygon class="fil2" points="2819.5,9056.65 2799.33,9068.75 2758.59,9000.83 2778.76,8988.73 "/>
   <polygon class="fil2" points="3011.18,8941.67 2990.95,8953.81 2950.22,8885.87 2970.45,8873.74 "/>
   <polygon class="fil2" points="3202.81,8826.71 3182.66,8838.8 3141.87,8770.92 3162.09,8758.79 "/>
  </g>
  <g id="_1943315338416">
   <path class="fil3" d="M5870.72 2696.16c108.82,52.32 475.24,292.84 475.24,292.84 0,0 916.37,-1597.9 923.87,-1736.73 12.46,-230.51 -595.09,-501.03 -614.44,-511.94 -179.59,-101.22 -605.31,-460.14 -767.25,-177.94 -134.3,234.09 -272.35,466.83 -406.88,705.82 -151,268.24 -322.1,548.53 -469,818.61 -53.14,97.72 -55.21,126.74 -55.21,126.74 0,0 725.45,392.12 913.67,482.61z"/>
   <path class="fil4" d="M5898.31 2690.72c102.81,49.25 428.04,227.23 428.04,227.23 0,0 174.81,-279.47 223.42,-357.06 203.73,-325.18 372.07,-675.25 562.66,-1006.78 66.92,-116.42 152.89,-234.81 163.19,-372.22 17.11,-228.14 -557.33,-481.82 -575.59,-492.17 -169.33,-95.99 -568.03,-441.26 -729.15,-158.56 -133.64,234.43 -270.81,467.61 -404.77,706.9 -150.35,268.56 -557.18,953.26 -557.18,953.26 0,0 250.17,139.64 369.98,207.93 172.47,98.3 341.6,206.26 519.4,291.46z"/>
   <path class="fil3" d="M6395.21 2905.36l1040.04 -1887.68c0,0 -703.27,-378.93 -722.63,-389.84 -179.59,-101.22 -668.57,-368.86 -668.57,-368.86 0,0 -371.03,657.74 -505.57,896.74 -150.99,268.24 -542.22,971.13 -542.22,971.13 0,0 246.92,127.73 374.01,199.72 182.93,103.63 1024.94,578.79 1024.94,578.79z"/>
   <polygon class="fil5" points="5012.26,2086.82 6417.85,2857.03 6390.84,2905.4 5035.19,2147.07 5008.93,2191.32 6369.71,2944.11 6345.96,2989 4957.05,2213.56 "/>
   <polygon class="fil5" points="6314.64,2933.33 6354.53,2963.19 6406.29,2875.27 6367.6,2852 "/>
   <polygon class="fil5" points="5595.04,1726.73 5388.8,2084.15 6252.45,2574.39 6461.81,2214.63 "/>
   <polygon class="fil3" points="6306.62,2254.99 5612.17,1867.27 5622.79,1848.25 6317.25,2235.98 "/>
   <polygon class="fil3" points="6245.71,2351.22 5551.26,1963.49 5561.88,1944.48 6256.33,2332.2 "/>
   <polygon class="fil3" points="6197.17,2437.55 5502.71,2049.84 5513.33,2030.82 6207.79,2418.54 "/>
   <path class="fil6" d="M5702.38 2479.71c130.31,3.8 597.31,80.07 597.31,80.07 0,0 201.95,-1978.34 148.37,-2118.56 -88.95,-232.83 -806.93,-232.74 -830.82,-235.02 -221.57,-20.96 -799.08,-188.03 -834.82,161.51 -29.64,289.82 -63.56,579.98 -91.28,874.77 -31.11,330.86 -76.74,682.43 -102.99,1013.31 -9.49,119.7 1.21,149.23 1.21,149.23 0,0 887.67,68.09 1113.03,74.67z"/>
   <path class="fil4" d="M5727.2 2462.22c123.02,3.43 521.94,36.11 521.94,36.11 0,0 49.65,-352.4 63.51,-450.27 58.11,-410.18 70.37,-829.36 112.72,-1240.02 14.87,-144.21 47.65,-298.72 -2.53,-438.8 -83.32,-232.47 -761.27,-230.36 -783.82,-232.55 -209.15,-20.28 -753.97,-185.67 -788.74,163.87 -28.83,289.89 -61.69,580.1 -88.71,874.92 -30.32,330.9 -130.83,1184.85 -130.83,1184.85 0,0 308.04,27.83 456.2,42.56 213.27,21.2 427.48,53.4 640.25,59.33z"/>
   <path class="fil6" d="M6311.52 2455.66l196.63 -2318.47c0,0 -859.99,-64.81 -883.88,-67.08 -221.58,-20.96 -821.35,-70.11 -821.35,-70.11 0,0 -77.04,811.62 -104.76,1106.4 -31.11,330.86 -108.22,1195.9 -108.22,1195.9 0,0 299.61,17.51 456.57,32.7 225.93,21.86 1265.01,120.66 1265.01,120.66z"/>
   <polygon class="fil7" points="4588.14,2255.8 6312.62,2398.06 6307.23,2457.62 4637.21,2305.14 4630.75,2360.33 6303.4,2505.07 6299.69,2559.78 4589.35,2405.03 "/>
   <polygon class="fil7" points="6244.35,2518.62 6296.8,2530.56 6309.24,2421.12 6260.85,2415.16 "/>
   <polygon class="fil7" points="5004.74,1644.72 4958.32,2087.79 6025.37,2191.96 6073.83,1745.2 "/>
   <polygon class="fil6" points="5938.52,1853.17 5083.35,1775.79 5085.47,1752.38 5940.64,1829.74 "/>
   <polygon class="fil6" points="5920.71,1974.81 5065.54,1897.45 5067.67,1874.02 5922.83,1951.4 "/>
   <polygon class="fil6" points="5910.76,2081.28 5055.59,2003.91 5057.71,1980.49 5912.88,2057.87 "/>
  </g>
  <g id="_1943315343952">
   <path class="fil8" d="M1700.42 12904.58c0,0 -10.31,-156.5 100.97,-366.31 0,0 -35.57,-1252.38 -269.19,-1543.92 0,0 -85.45,-150.48 -47.93,173.84l127.51 1985.17 88.63 -248.79z"/>
   <path class="fil5" d="M1324.49 13843.69c-147.96,0 -268.35,-120.38 -268.35,-268.34 0,-147.96 120.38,-268.35 268.35,-268.35 147.96,0 268.34,120.38 268.34,268.35 0,147.96 -120.38,268.34 -268.34,268.34zm438.22 -757c-0.82,-58.4 11.67,-149.39 -19.6,-200.46 -49.8,-81.31 -145.35,-74.7 -207.68,-8.03 -36.49,39.02 -51.89,89.75 -87.11,130.74 -32.29,37.56 -72.1,67.59 -112.53,94.84 -61.26,41.27 -123.1,81.51 -184.08,123.61 -127.78,63.71 -215.78,195.75 -215.78,347.97 0,214.25 174.31,388.56 388.57,388.56 214.25,0 388.57,-174.31 388.57,-388.56 0,-4 -0.08,-7.98 -0.2,-11.94 32.88,-171.76 50.97,-397.38 49.85,-476.72z"/>
   <path class="fil3" d="M1303.1 13810.8c-147.96,0 -268.35,-120.38 -268.35,-268.34 0,-147.96 120.38,-268.35 268.35,-268.35 147.96,0 268.34,120.38 268.34,268.35 0,147.96 -120.38,268.34 -268.34,268.34zm438.22 -757c-0.82,-58.4 11.67,-149.39 -19.6,-200.47 -49.8,-81.3 -145.35,-74.69 -207.68,-8.02 -36.49,39.02 -51.89,89.75 -87.11,130.74 -32.29,37.56 -72.1,67.59 -112.53,94.84 -61.26,41.27 -123.1,81.51 -184.08,123.61 -127.78,63.71 -215.78,195.75 -215.78,347.97 0,214.25 174.31,388.56 388.57,388.56 214.25,0 388.57,-174.31 388.57,-388.56 0,-4 -0.08,-7.98 -0.2,-11.94 32.88,-171.76 50.97,-397.38 49.85,-476.72z"/>
   <path class="fil5" d="M2967.48 13069.23c-89.26,118.01 -257.89,141.41 -375.9,52.16 -118.01,-89.26 -141.41,-257.88 -52.16,-375.89 89.26,-118.02 257.88,-141.41 375.89,-52.16 118.02,89.26 141.41,257.88 52.16,375.89zm20.37 -471.77c-121.28,-91.73 -279.43,-101.21 -407.25,-37.94 -70.51,23.28 -140.05,48.39 -210.07,72.4 -46.11,15.81 -94.08,29.44 -143.52,32.53 -53.93,3.38 -103.69,-14.94 -156.82,-9.38 -90.76,9.5 -153.68,81.72 -118.88,170.48 21.87,55.75 101.98,100.68 148.06,136.56 62.65,48.79 253.81,170.64 410.71,248.02 2.98,2.39 5.91,4.83 8.97,7.15 170.89,129.25 415.06,95.37 544.3,-75.51 129.25,-170.89 95.37,-415.06 -75.51,-544.3z"/>
   <path class="fil9" d="M1982.62 12775.62c0,0 -118.6,-102.62 -353.08,-140.44 0,0 -977.4,-783.82 -1069,-1146.01 0,0 -68.48,-158.93 167.56,66.64l1506.39 1299.2 -251.88 -79.39z"/>
   <path class="fil3" d="M2591.58 13082.45c118.01,89.25 286.64,65.85 375.9,-52.16 89.25,-118.01 65.86,-286.64 -52.16,-375.89 -118.01,-89.25 -286.64,-65.86 -375.89,52.16 -89.25,118.01 -65.86,286.64 52.16,375.89zm-72.52 95.88c-170.88,-129.24 -204.76,-373.41 -75.52,-544.3 129.25,-170.88 373.41,-204.76 544.3,-75.51 170.88,129.24 204.76,373.41 75.51,544.3 -129.24,170.88 -373.41,204.76 -544.3,75.51z"/>
   <path class="fil3" d="M2633.84 12503.42c-88.94,27.72 -175.74,59.52 -263.32,89.55 -46.11,15.81 -94.08,29.44 -143.52,32.53 -53.93,3.38 -103.69,-14.94 -156.82,-9.38 -90.76,9.5 -153.68,81.72 -118.88,170.48 21.87,55.75 101.98,100.68 148.06,136.56 93.91,73.13 476.54,310.45 599.78,316 10.75,-53.15 -244.31,-228.27 -256.42,-280.74 -13,-56.27 -6.5,-119.43 5.5,-175.47 19.7,-92.01 69.45,-248.57 179.1,-260.24l6.51 -19.29z"/>
   <path class="fil5" d="M1755.65 12526.4c0,41.95 -34.01,75.96 -75.97,75.96 -41.95,0 -75.96,-34.01 -75.96,-75.96 0,-41.96 34.01,-75.96 75.96,-75.96 41.96,0 75.97,34 75.97,75.96z"/>
   <path class="fil3" d="M1751.35 12514.71c0,41.95 -34,75.96 -75.96,75.96 -41.95,0 -75.96,-34.01 -75.96,-75.96 0,-41.96 34.01,-75.96 75.96,-75.96 41.96,0 75.96,34 75.96,75.96z"/>
   <polygon class="fil10" points="1747.15,12471.99 564.23,11454.41 572.63,11444.64 1755.55,12462.23 "/>
  </g>
  <g id="_1943315347216">
   <polygon class="fil7" points="7769.63,8046.46 8010.28,7864.69 7149.87,5137.9 7079.65,5093.75 6582.09,5322.05 7713.54,8069.53 7769.63,8046.46 "/>
   <polygon class="fil6" points="6657.19,5340.43 7769.63,8046.46 8237.09,7832 7149.87,5137.9 "/>
   <polygon class="fil2" points="6760.37,5591.43 6748.85,5563.38 6843.25,5524.56 6854.79,5552.61 "/>
   <polygon class="fil2" points="6869.89,5857.84 6858.36,5829.79 6952.78,5790.98 6964.31,5819.03 "/>
   <polygon class="fil2" points="6979.42,6124.26 6967.88,6096.21 7062.3,6057.39 7073.83,6085.44 "/>
   <polygon class="fil2" points="7088.94,6390.67 7077.41,6362.63 7171.82,6323.82 7183.35,6351.86 "/>
   <polygon class="fil2" points="7198.46,6657.09 7186.93,6629.04 7281.35,6590.23 7292.87,6618.27 "/>
   <polygon class="fil2" points="7307.98,6923.51 7296.45,6895.46 7390.86,6856.65 7402.39,6884.7 "/>
   <polygon class="fil2" points="7417.51,7189.91 7405.97,7161.88 7500.39,7123.06 7511.92,7151.11 "/>
   <polygon class="fil2" points="7527,7456.36 7515.52,7428.27 7609.92,7389.46 7621.47,7417.5 "/>
   <polygon class="fil2" points="7636.54,7722.75 7625,7694.72 7719.41,7655.91 7730.95,7683.95 "/>
   <path class="fil4" d="M7027.57 5467.23c-29.79,27.63 -76.33,25.88 -103.96,-3.92 -27.63,-29.79 -25.88,-76.33 3.91,-103.96 29.79,-27.63 76.34,-25.88 103.96,3.91 27.63,29.79 25.88,76.34 -3.91,103.97z"/>
  </g>
  <g id="_1943315352816">
   <polygon class="fil11" points="4407.79,7398.47 3669.52,6968.59 3669.52,6653.17 4411.78,7052.97 "/>
   <polygon class="fil12" points="5077.61,5755.51 5046.47,6144.94 4407.79,7398.47 4411.78,7052.97 "/>
   <polygon class="fil13" points="4321.85,5366.93 3669.52,6653.17 4407.79,7060.34 5077.61,5755.51 "/>
   <polygon class="fil11" points="4373.36,5488.31 3773.71,6588.89 4361.12,6929.76 4965.15,5783.86 "/>
   <polygon class="fil14" points="4485.87,5597.79 4924.39,5800.44 4375.49,6866.99 3922.05,6620.9 "/>
   <path class="fil15" d="M4730.08 5884.36c-20.89,45.21 -74.46,64.92 -119.67,44.03 -45.2,-20.89 -64.91,-74.47 -44.02,-119.67 20.88,-45.21 74.46,-64.91 119.67,-44.03 45.2,20.89 64.91,74.47 44.02,119.67z"/>
   <polygon class="fil16" points="4485.87,5597.79 4558.06,5638.58 3994.83,6660.39 3922.05,6620.9 "/>
   <path class="fil12" d="M4189.1 7129.79c-30.89,44.09 -122.38,33.3 -204.38,-24.12 -81.99,-57.42 -123.41,-139.71 -92.53,-183.81 30.88,-44.1 122.38,-33.3 204.37,24.11 82,57.42 123.42,139.72 92.54,183.82z"/>
  </g>
  <g id="_1943315354032">
   <polygon class="fil17" points="5109.34,9685.32 5901.79,9943.32 5855.72,10496.23 5109.34,10155.25 "/>
   <polygon class="fil18" points="5901.79,9943.32 7154.96,9252.23 7109.39,9786.55 5855.72,10496.23 "/>
   <polygon class="fil19" points="7154.96,9252.23 6463.88,9086.37 5109.34,9685.32 5901.79,9943.32 "/>
   <polygon class="fil20" points="5675.82,9434.83 6433.12,9650.31 5901.79,9943.32 5109.34,9685.32 "/>
   <polygon class="fil21" points="6433.12,9650.31 6433.12,10163.75 5855.72,10496.23 5901.79,9943.32 "/>
   <polygon class="fil22" points="5901.79,9943.32 5109.34,9685.32 5109.34,10155.25 5855.72,10496.23 "/>
  </g>
  <g id="_1943315356464">
   <path class="fil21" d="M1721.99 1647.37c0,0 24.08,-22.03 48.45,41.58l97.48 252.06 -65.66 27.61 -80.27 -321.25z"/>
   <path class="fil20" d="M1631.78 2016.48l-62.14 -147.8c0,0 -13.95,-27.49 5.03,-61.68l147.31 -159.63 102.79 287.96 -192.99 81.15z"/>
   <path class="fil23" d="M2299.17 2457.06l-85.72 -203.88 -41.69 -14.15c0,0 -147.69,30.46 -210.59,-127.65l-79.98 -190.08 -51.57 -3 -74.81 263.26 323.82 260.54 220.55 14.96z"/>
   <path class="fil21" d="M2299.17 2457.06l430.88 1126.22c0,0 38.96,127.23 -82.51,178.23 -121.48,51.09 -44.68,18.86 -44.68,18.86l-137.54 57.82c0,0 -184.64,121.79 -264.04,-67l-178.88 -1437.69 276.77 123.56z"/>
   <path class="fil24" d="M1664.32 2681.11l589.15 -247.72 -81.72 -194.36c0,0 -160.47,60.33 -227.84,-82.89l-114.31 -237.85 -224.73 94.49 99.6 236.88c0,0 68.33,128.51 -130.52,233.57l90.35 197.87z"/>
   <path class="fil20" d="M2253.47 2433.39l430.88 1126.22c0,0 38.97,127.17 -82.51,178.25 -121.48,51.09 -44.67,18.77 -44.67,18.77l-137.54 57.82c0,0 -184.64,121.87 -264.05,-67l-491.26 -1066.35 589.15 -247.72z"/>
   <path class="fil21" d="M2166.2 2470.09l407.75 1041.16c0,0 38.9,116.81 -46.59,152.72 -85.49,35.94 -31.44,13.21 -31.44,13.21l-96.79 40.74c0,0 -126.4,94.09 -200.05,-81.02l-447.49 -992.48 414.6 -174.33z"/>
   <path class="fil0" d="M3067.01 1464.62c0,0 29.72,-13.53 33.25,54.51l14.86 269.84 -70.98 5.98 22.87 -330.33z"/>
   <path class="fil25" d="M2867.22 1787.81l-13.46 -159.76c0,0 -4.76,-30.46 23.84,-57.12l189.41 -106.32 8.83 305.62 -208.62 17.57z"/>
   <path class="fil23" d="M3365.9 2412.98l-18.57 -220.4 -35.28 -26.33c0,0 -149.86,-16.65 -160.87,-186.45l-17.36 -205.49 -48.12 -18.79 -152.47 227.29 227.51 347.81 205.16 82.35z"/>
   <path class="fil0" d="M3365.9 2412.98l61.97 1204.24c0,0 -2.22,133.02 -133.54,144.04 -131.31,11.11 -48.29,4.12 -48.29,4.12l-148.67 12.46c0,0 -213.24,58.92 -230.44,-145.26l273.89 -1422.6 225.08 203z"/>
   <path class="fil24" d="M2692.9 2430l636.86 -53.65 -17.7 -210.09c0,0 -171.25,7.81 -191.09,-149.21l-35.26 -261.52 -242.93 20.47 21.57 256.06c0,0 25.3,143.33 -196.28,181.83l24.82 216.11z"/>
   <path class="fil25" d="M3329.75 2376.35l61.97 1204.24c0,0 -2.22,133.03 -133.53,144.06 -131.31,11.02 -48.29,4.04 -48.29,4.04l-148.68 12.54c0,0 -213.24,58.83 -230.44,-145.27l-137.89 -1165.96 636.86 -53.65z"/>
   <path class="fil0" d="M3235.41 2384.3l66.25 1116.19c0,0 0.93,123.11 -91.48,130.89 -92.41,7.78 -33.99,2.86 -33.99,2.86l-104.63 8.81c0,0 -149.3,50.53 -165.25,-138.83l-119.08 -1082.17 448.17 -37.76z"/>
  </g>
  <g id="_1943315294640">
   <path class="fil26" d="M6556.47 14172.35c3.9,-13.99 -0.05,-27.32 -8.79,-29.73l-225.54 -62.8c-8.73,-2.42 -18.97,6.94 -22.87,20.93l-52.7 189.31c-3.88,13.99 0.02,27.24 8.79,29.73l225.5 62.72c8.78,2.49 19.02,-6.87 22.91,-20.85l52.69 -189.31z"/>
   <polygon class="fil27" points="7191.34,11891.71 6934.15,11820.11 6350.36,13917.2 6607.54,13988.78 "/>
   <polygon class="fil28" points="7191.34,11891.71 7121.41,11645.16 6934.15,11820.11 "/>
   <polygon class="fil26" points="7136.93,11876.56 6988.55,11835.26 6404.77,13932.35 6553.16,13973.66 "/>
   <polygon class="fil29" points="7148.66,11741.25 7121.41,11645.16 7048.43,11713.34 "/>
   <polygon class="fil30" points="6540.77,14228.76 6283.58,14157.15 6350.36,13917.2 6607.54,13988.78 "/>
   <polygon class="fil31 str0" points="6337.23,13964.37 6594.43,14036 "/>
   <polygon class="fil31 str0" points="6324.9,14008.67 6582.09,14080.27 "/>
  </g>
  <g id="_1943315299184">
   <path class="fil32" d="M64.22 4222.98c4.58,13.76 15.29,22.61 23.9,19.74l222.09 -74.03c8.61,-2.87 11.87,-16.36 7.28,-30.12l-62.13 -186.44c-4.58,-13.76 -15.3,-22.61 -23.9,-19.74l-222.05 74.06c-8.61,2.87 -11.92,16.31 -7.34,30.07l62.16 186.47z"/>
   <polygon class="fil33" points="812.6,6468.91 1065.88,6384.51 377.72,4319.32 124.44,4403.72 "/>
   <polygon class="fil28" points="812.6,6468.91 1008.4,6634.26 1065.88,6384.51 "/>
   <polygon class="fil32" points="866.17,6451.06 1012.3,6402.36 324.15,4337.17 178.02,4385.87 "/>
   <polygon class="fil29" points="932.09,6569.82 1008.4,6634.26 1030.79,6536.93 "/>
   <polygon class="fil30" points="45.7,4167.43 298.99,4083.04 377.72,4319.32 124.44,4403.72 "/>
   <polygon class="fil31 str1" points="362.24,4272.86 108.96,4357.26 "/>
   <polygon class="fil31 str1" points="347.7,4229.24 94.42,4313.64 "/>
  </g>
 </g>
</svg>
