<?xml version="1.0" encoding="UTF-8"?>
<!DOCTYPE svg PUBLIC "-//W3C//DTD SVG 1.1//EN" "http://www.w3.org/Graphics/SVG/1.1/DTD/svg11.dtd">
<!-- Creator: CorelDRAW 2019 (64 Bit) -->
<svg xmlns="http://www.w3.org/2000/svg" xml:space="preserve" width="300.104mm" height="359.103mm" version="1.1" style="shape-rendering:geometricPrecision; text-rendering:geometricPrecision; image-rendering:optimizeQuality; fill-rule:evenodd; clip-rule:evenodd"
viewBox="0 0 3273.19 3916.69"
 xmlns:xlink="http://www.w3.org/1999/xlink">
 <defs>
  <style type="text/css">
   <![CDATA[
    .fil4 {fill:#FEFEFE;fill-rule:nonzero}
    .fil1 {fill:#FFCA2B;fill-rule:nonzero}
    .fil0 {fill:#F79334;fill-rule:nonzero}
    .fil3 {fill:#F16667;fill-rule:nonzero}
    .fil5 {fill:#DC444B;fill-rule:nonzero}
    .fil6 {fill:#31BFC6;fill-rule:nonzero}
    .fil2 {fill:#3D3D3D;fill-rule:nonzero}
    .fil7 {fill:#269393;fill-rule:nonzero}
   ]]>
  </style>
 </defs>
 <g id="Camada_x0020_1">
  <metadata id="CorelCorpID_0Corel-Layer"/>
  <g id="_2972073010848">
   <path class="fil0" d="M691.85 1578.44l229.27 1026.84 -619.3 -364.94 390.03 -661.91zm65.19 -548.93l-757.04 1284.72 1201.97 708.28 14.71 -24.9 -459.64 -1968.1z"/>
   <path class="fil1" d="M711.43 1545.22l229.27 1026.84 -624.2 -356.63 394.94 -670.21zm60.31 -540.64l-757.05 1284.74 1201.99 708.29 -444.94 -1993.03z"/>
   <polygon class="fil2" points="126.17,2355.01 113.71,2347.67 138.43,2305.73 150.88,2313.07 "/>
   <polygon class="fil2" points="244.51,2424.74 232.05,2417.4 256.76,2375.46 269.22,2382.81 "/>
   <polygon class="fil2" points="362.85,2494.47 350.39,2487.13 375.1,2445.19 387.56,2452.53 "/>
   <polygon class="fil2" points="481.19,2564.21 468.73,2556.87 493.44,2514.93 505.9,2522.27 "/>
   <polygon class="fil2" points="599.53,2633.94 587.07,2626.6 611.78,2584.66 624.23,2592 "/>
   <polygon class="fil2" points="717.86,2703.67 705.4,2696.33 730.12,2654.4 742.58,2661.74 "/>
   <polygon class="fil2" points="836.2,2773.4 823.74,2766.06 848.46,2724.13 860.91,2731.47 "/>
   <polygon class="fil2" points="954.55,2843.14 942.06,2835.79 966.79,2793.85 979.28,2801.21 "/>
   <polygon class="fil2" points="1072.88,2912.87 1060.44,2905.54 1085.11,2863.58 1097.6,2870.94 "/>
  </g>
  <g id="_2972073013152">
   <path class="fil3" d="M2268.82 1657.04c66.88,32.15 292.08,179.98 292.08,179.98 0,0 563.2,-982.06 567.8,-1067.38 7.66,-141.67 -365.74,-307.93 -377.63,-314.63 -110.38,-62.21 -372.02,-282.8 -471.55,-109.36 -82.54,143.87 -167.39,286.91 -250.07,433.79 -92.81,164.86 -197.96,337.12 -288.24,503.11 -32.66,60.06 -33.93,77.89 -33.93,77.89 0,0 445.86,240.99 561.54,296.61z"/>
   <path class="fil4" d="M2285.78 1653.7c63.19,30.27 263.07,139.65 263.07,139.65 0,0 107.43,-171.76 137.31,-219.45 125.21,-199.86 228.67,-415.01 345.81,-618.76 41.13,-71.55 93.96,-144.32 100.3,-228.77 10.52,-140.21 -342.53,-296.13 -353.75,-302.48 -104.07,-59 -349.11,-271.19 -448.13,-97.45 -82.13,144.08 -166.44,287.39 -248.77,434.46 -92.4,165.05 -342.44,585.87 -342.44,585.87 0,0 153.75,85.82 227.39,127.79 106,60.41 209.94,126.77 319.22,179.13z"/>
   <path class="fil3" d="M2591.17 1785.61l639.2 -1160.16c0,0 -432.22,-232.89 -444.12,-239.59 -110.38,-62.21 -410.9,-226.7 -410.9,-226.7 0,0 -228.03,404.24 -310.72,551.13 -92.8,164.86 -333.25,596.85 -333.25,596.85 0,0 151.75,78.5 229.86,122.75 112.43,63.69 629.92,355.72 629.92,355.72z"/>
   <polygon class="fil5" points="1741.22,1282.55 2605.08,1755.91 2588.48,1785.64 1755.31,1319.58 1739.17,1346.77 2575.5,1809.43 2560.9,1837.02 1707.29,1360.44 "/>
   <polygon class="fil5" points="2541.66,1802.8 2566.17,1821.16 2597.98,1767.12 2574.2,1752.82 "/>
   <polygon class="fil5" points="2099.39,1061.24 1972.64,1280.91 2503.43,1582.2 2632.1,1361.09 "/>
   <polygon class="fil3" points="2536.73,1385.9 2109.92,1147.61 2116.45,1135.92 2543.26,1374.22 "/>
   <polygon class="fil3" points="2499.29,1445.04 2072.48,1206.75 2079.01,1195.06 2505.82,1433.36 "/>
   <polygon class="fil3" points="2469.46,1498.1 2042.65,1259.82 2049.18,1248.13 2475.98,1486.42 "/>
   <path class="fil6" d="M2165.36 1524.01c80.08,2.33 367.1,49.21 367.1,49.21 0,0 124.11,-1215.87 91.18,-1302.05 -54.67,-143.09 -495.93,-143.04 -510.61,-144.44 -136.18,-12.88 -491.11,-115.56 -513.08,99.27 -18.22,178.12 -39.07,356.45 -56.1,537.63 -19.12,203.34 -47.16,419.41 -63.3,622.77 -5.83,73.57 0.74,91.72 0.74,91.72 0,0 545.55,41.85 684.06,45.89z"/>
   <path class="fil4" d="M2180.62 1513.26c75.61,2.11 320.78,22.19 320.78,22.19 0,0 30.51,-216.58 39.03,-276.73 35.71,-252.09 43.25,-509.72 69.28,-762.11 9.14,-88.63 29.29,-183.59 -1.56,-269.68 -51.21,-142.87 -467.87,-141.58 -481.73,-142.92 -128.54,-12.47 -463.39,-114.11 -484.75,100.71 -17.72,178.16 -37.92,356.52 -54.52,537.72 -18.64,203.37 -80.41,728.2 -80.41,728.2 0,0 189.32,17.11 280.38,26.16 131.07,13.03 262.72,32.82 393.49,36.46z"/>
   <path class="fil6" d="M2539.74 1509.23l120.85 -1424.92c0,0 -528.55,-39.83 -543.22,-41.23 -136.18,-12.88 -504.8,-43.09 -504.8,-43.09 0,0 -47.35,498.82 -64.38,679.99 -19.12,203.34 -66.51,734.99 -66.51,734.99 0,0 184.14,10.76 280.6,20.1 138.85,13.43 777.47,74.16 777.47,74.16z"/>
   <polygon class="fil7" points="1480.56,1386.4 2540.41,1473.83 2537.1,1510.44 1510.72,1416.73 1506.74,1450.64 2534.74,1539.6 2532.46,1573.22 1481.3,1478.12 "/>
   <polygon class="fil7" points="2498.45,1547.93 2530.69,1555.26 2538.34,1488 2508.6,1484.34 "/>
   <polygon class="fil7" points="1736.59,1010.83 1708.07,1283.14 2363.87,1347.16 2393.65,1072.59 "/>
   <polygon class="fil6" points="2310.49,1138.94 1784.91,1091.39 1786.21,1077 2311.8,1124.55 "/>
   <polygon class="fil6" points="2299.55,1213.71 1773.96,1166.16 1775.27,1151.76 2300.85,1199.31 "/>
   <polygon class="fil6" points="2293.43,1279.14 1767.85,1231.59 1769.15,1217.2 2294.73,1264.75 "/>
  </g>
  <g id="_2972073006592">
   <polygon class="fil7" points="3160.39,2907.27 3187.74,3090.6 1636.7,3916.69 1586.9,3905.84 1466.84,3591.53 3145.71,2873.01 3160.39,2907.27 "/>
   <polygon class="fil6" points="1507.7,3615.79 3160.39,2907.27 3273.19,3202.55 1636.7,3916.69 "/>
   <polygon class="fil2" points="1661,3550.07 1643.87,3557.42 1668.59,3615.08 1685.72,3607.74 "/>
   <polygon class="fil2" points="1823.71,3480.31 1806.58,3487.66 1831.3,3545.32 1848.43,3537.98 "/>
   <polygon class="fil2" points="1986.42,3410.56 1969.29,3417.9 1994.01,3475.57 2011.14,3468.22 "/>
   <polygon class="fil2" points="2149.13,3340.8 2132,3348.15 2156.72,3405.81 2173.85,3398.47 "/>
   <polygon class="fil2" points="2311.84,3271.05 2294.71,3278.39 2319.43,3336.06 2336.56,3328.71 "/>
   <polygon class="fil2" points="2474.55,3201.29 2457.42,3208.63 2482.14,3266.3 2499.27,3258.95 "/>
   <polygon class="fil2" points="2637.26,3131.54 2620.13,3138.88 2644.85,3196.55 2661.98,3189.2 "/>
   <polygon class="fil2" points="2799.97,3061.76 2782.84,3069.15 2807.56,3126.8 2824.7,3119.47 "/>
   <polygon class="fil2" points="2962.68,2992.02 2945.55,2999.36 2970.27,3057.02 2987.4,3049.68 "/>
   <path class="fil4" d="M1724.78 3719.56c-1.18,-24.94 -22.36,-44.2 -47.3,-43.02 -24.94,1.18 -44.2,22.35 -43.02,47.3 1.18,24.95 22.35,44.21 47.3,43.03 24.95,-1.18 44.21,-22.35 43.03,-47.3z"/>
  </g>
 </g>
</svg>
