<?xml version="1.0" encoding="UTF-8"?>
<!DOCTYPE svg PUBLIC "-//W3C//DTD SVG 1.1//EN" "http://www.w3.org/Graphics/SVG/1.1/DTD/svg11.dtd">
<!-- Creator: CorelDRAW 2019 (64 Bit) -->
<svg xmlns="http://www.w3.org/2000/svg" xml:space="preserve" width="396.265mm" height="148.15mm" version="1.1" style="shape-rendering:geometricPrecision; text-rendering:geometricPrecision; image-rendering:optimizeQuality; fill-rule:evenodd; clip-rule:evenodd"
viewBox="0 0 161305.63 60306.7"
 xmlns:xlink="http://www.w3.org/1999/xlink">
 <defs>
  <style type="text/css">
   <![CDATA[
    .fil4 {fill:none}
    .fil2 {fill:#008F40}
    .fil5 {fill:#00B050}
    .fil3 {fill:#97D256}
    .fil0 {fill:white;fill-rule:nonzero}
    .fil1 {fill:url(#id2)}
   ]]>
  </style>
   <clipPath id="id0">
    <path d="M-0 0l10447.49 0c5745.89,0 10447.04,4701.15 10447.04,10447.04l0 10447.49 -10447.49 0c-5745.89,0 -10447.04,-4701.15 -10447.04,-10447.04l0 -10447.49z"/>
   </clipPath>
   <clipPath id="id1">
    <path d="M38018.95 4866.06l0 8014.42c0,4407.74 -3606.31,8014.05 -8014.05,8014.05l-8014.42 0 0 -8014.42c0,-4407.74 3606.31,-8014.05 8014.05,-8014.05l8014.42 0z"/>
   </clipPath>
  <linearGradient id="id2" gradientUnits="userSpaceOnUse" x1="22043.11" y1="43915.25" x2="-3805.57" y2="18928.2">
   <stop offset="0" style="stop-opacity:1; stop-color:red"/>
   <stop offset="0.631373" style="stop-opacity:1; stop-color:#F84F4F"/>
   <stop offset="1" style="stop-opacity:1; stop-color:#F09E9E"/>
  </linearGradient>
 </defs>
 <g id="Camada_x0020_1">
  <metadata id="CorelCorpID_0Corel-Layer"/>
  <polygon class="fil0" points="58504.06,28186.37 58504.06,55735.08 59412.71,55735.08 59412.71,26823.4 58008.45,26823.4 50904.43,54248.19 43800.41,26823.4 42396.16,26823.4 42396.16,55735.08 43222.18,55735.08 43222.18,28186.37 50367.51,55652.48 51400.08,55652.48 "/>
  <polygon id="1" class="fil0" points="69284,55735.08 70192.65,55735.08 70192.65,44046.48 77048.84,26823.4 76098.88,26823.4 69779.64,42807.42 63460.36,26823.4 62551.71,26823.4 69284,44046.48 "/>
  <path id="2" class="fil0" d="M92537.23 26616.89c-4378.07,0 -6030.14,3304.19 -6030.14,7310.52l0 14703.64c0,4006.34 1652.07,7310.52 6030.14,7310.52 4419.34,0 6071.46,-3304.19 6071.46,-7310.52l0 -3138.96 -908.65 0 0 3180.28c0,3510.69 -1321.7,6401.87 -5121.49,6401.87 -3841.15,0 -5162.81,-2891.18 -5162.81,-6401.87l0 -14786.23c0,-3510.73 1321.66,-6443.19 5162.81,-6443.19 3799.79,0 5121.49,2932.46 5121.49,6443.19l0 2271.63 908.65 0 0 -2230.35c0,-4006.34 -1652.11,-7310.52 -6071.46,-7310.52z"/>
  <polygon id="3" class="fil0" points="112444.95,55735.08 112444.95,54867.74 102738.93,54867.74 102738.93,26823.4 101830.28,26823.4 101830.28,55735.08 "/>
  <path id="4" class="fil0" d="M128263.75 48920.19l1693.43 6814.88 908.65 0 -7145.34 -28952.96 -1280.38 0 -6980.07 28952.96 826.02 0 1693.43 -6814.88 10284.26 0zm-5204.08 -21064.24l5038.9 20238.18 -9953.88 0 4914.99 -20238.18z"/>
  <path id="5" class="fil0" d="M140034.93 26616.89c-4171.52,41.32 -5947.55,2932.5 -5947.55,7145.34 0,7971.35 11069.04,7723.53 11069.04,15034.06 0,3510.69 -1362.98,6277.96 -5162.81,6277.96 -3799.79,0 -5162.77,-2767.27 -5162.77,-6277.96l0 -1445.61 -867.37 0 0 1404.29c0,4006.34 1652.11,7186.61 6030.14,7186.61 4419.38,0 6071.46,-3180.28 6071.46,-7186.61 0,-7847.44 -11069.04,-7640.94 -11069.04,-15034.06 0,-3428.1 1280.38,-6277.96 5080.21,-6277.96 3758.51,0 5038.86,2891.18 5038.86,6319.28l0 578.24 908.69 0 0 -536.96c0,-3965.02 -1610.8,-7186.61 -5988.86,-7186.61z"/>
  <path id="6" class="fil0" d="M155275.49 26616.89c-4171.52,41.32 -5947.55,2932.5 -5947.55,7145.34 0,7971.35 11069.04,7723.53 11069.04,15034.06 0,3510.69 -1362.98,6277.96 -5162.81,6277.96 -3799.79,0 -5162.77,-2767.27 -5162.77,-6277.96l0 -1445.61 -867.37 0 0 1404.29c0,4006.34 1652.11,7186.61 6030.14,7186.61 4419.38,0 6071.46,-3180.28 6071.46,-7186.61 0,-7847.44 -11069.04,-7640.94 -11069.04,-15034.06 0,-3428.1 1280.38,-6277.96 5080.21,-6277.96 3758.51,0 5038.86,2891.18 5038.86,6319.28l0 578.24 908.69 0 0 -536.96c0,-3965.02 -1610.8,-7186.61 -5988.86,-7186.61z"/>
  <rect class="fil1" x="2.73" y="22251.73" width="38054.97" height="38054.97" rx="7967.2" ry="7967.2"/>
  <path class="fil2" d="M-0 0l10447.49 0c5745.89,0 10447.04,4701.15 10447.04,10447.04l0 10447.49 -10447.49 0c-5745.89,0 -10447.04,-4701.15 -10447.04,-10447.04l0 -10447.49z"/>
  <g style="clip-path:url(#id0)">
   <g id="_2711651566544">
    <rect class="fil3" transform="matrix(1.41725 -1.41117 1.41117 1.41725 -42083 33808.7)" width="26853.88" height="24915.24"/>
   </g>
  </g>
  <path class="fil4" d="M-0 0l10447.49 0c5745.89,0 10447.04,4701.15 10447.04,10447.04l0 10447.49 -10447.49 0c-5745.89,0 -10447.04,-4701.15 -10447.04,-10447.04l0 -10447.49z"/>
  <path class="fil5" d="M38018.95 4866.06l0 8014.42c0,4407.74 -3606.31,8014.05 -8014.05,8014.05l-8014.42 0 0 -8014.42c0,-4407.74 3606.31,-8014.05 8014.05,-8014.05l8014.42 0z"/>
  <g style="clip-path:url(#id1)">
   <g id="_2711651564752">
    <rect class="fil3" transform="matrix(1.08252 1.08719 -1.08719 1.08252 43250.4 -343.033)" width="26853.88" height="24915.24"/>
   </g>
  </g>
  <path class="fil4" d="M38018.95 4866.06l0 8014.42c0,4407.74 -3606.31,8014.05 -8014.05,8014.05l-8014.42 0 0 -8014.42c0,-4407.74 3606.31,-8014.05 8014.05,-8014.05l8014.42 0z"/>
 </g>
</svg>
