<?xml version="1.0" encoding="UTF-8"?>
<!DOCTYPE svg PUBLIC "-//W3C//DTD SVG 1.1//EN" "http://www.w3.org/Graphics/SVG/1.1/DTD/svg11.dtd">
<!-- Creator: CorelDRAW 2019 (64 Bit) -->
<svg xmlns="http://www.w3.org/2000/svg" xml:space="preserve" width="44.6849mm" height="44.6849mm" version="1.1" style="shape-rendering:geometricPrecision; text-rendering:geometricPrecision; image-rendering:optimizeQuality; fill-rule:evenodd; clip-rule:evenodd"
viewBox="0 0 1061.66 1061.66"
 xmlns:xlink="http://www.w3.org/1999/xlink">
 <defs>
  <style type="text/css">
   <![CDATA[
    .str0 {stroke:white;stroke-width:4.75;stroke-miterlimit:22.9256}
    .fil2 {fill:none}
    .fil0 {fill:gray}
    .fil1 {fill:white}
   ]]>
  </style>
   <clipPath id="id0">
    <path d="M530.83 0c293.17,0 530.83,237.66 530.83,530.83 0,293.17 -237.66,530.83 -530.83,530.83 -293.17,0 -530.83,-237.66 -530.83,-530.83 0,-293.17 237.66,-530.83 530.83,-530.83z"/>
   </clipPath>
 </defs>
 <g id="Camada_x0020_1">
  <metadata id="CorelCorpID_0Corel-Layer"/>
  <path class="fil0" d="M530.83 0c293.17,0 530.83,237.66 530.83,530.83 0,293.17 -237.66,530.83 -530.83,530.83 -293.17,0 -530.83,-237.66 -530.83,-530.83 0,-293.17 237.66,-530.83 530.83,-530.83z"/>
  <g style="clip-path:url(#id0)">
   <g id="_2476627854304">
    <ellipse class="fil1 str0" cx="526.14" cy="1104.4" rx="391.59" ry="464.29"/>
    <circle class="fil1 str0" cx="526.14" cy="379.87" r="211.04"/>
   </g>
  </g>
  <path class="fil2" d="M530.83 0c293.17,0 530.83,237.66 530.83,530.83 0,293.17 -237.66,530.83 -530.83,530.83 -293.17,0 -530.83,-237.66 -530.83,-530.83 0,-293.17 237.66,-530.83 530.83,-530.83z"/>
 </g>
</svg>
