<?xml version="1.0" encoding="UTF-8"?>
<!DOCTYPE svg PUBLIC "-//W3C//DTD SVG 1.1//EN" "http://www.w3.org/Graphics/SVG/1.1/DTD/svg11.dtd">
<!-- Creator: CorelDRAW 2019 (64 Bit) -->
<svg xmlns="http://www.w3.org/2000/svg" xml:space="preserve" width="15.5079mm" height="8.2779mm" version="1.1" style="shape-rendering:geometricPrecision; text-rendering:geometricPrecision; image-rendering:optimizeQuality; fill-rule:evenodd; clip-rule:evenodd"
viewBox="0 0 60.02 32.04"
 xmlns:xlink="http://www.w3.org/1999/xlink">
 <defs>
  <style type="text/css">
   <![CDATA[
    .str0 {stroke:#231F20;stroke-width:3.14;stroke-miterlimit:22.9256}
    .str1 {stroke:#231F20;stroke-width:0.77;stroke-miterlimit:22.9256}
    .fil0 {fill:none}
    .fil1 {fill:#231F20}
   ]]>
  </style>
 </defs>
 <g id="Camada_x0020_1">
  <metadata id="CorelCorpID_0Corel-Layer"/>
  <g id="_2972072472208">
   <g>
    <path class="fil0 str0" d="M1.6 16.02c9.51,7.22 19.03,14.45 28.54,14.45 9.51,0 19.03,-7.22 28.54,-14.45"/>
    <circle class="fil1 str1" transform="matrix(0.154115 -0.154115 -0.154115 -0.154115 58.4209 16.2184)" r="5.55"/>
    <circle class="fil1 str1" transform="matrix(0.154115 -0.154115 -0.154115 -0.154115 1.5971 16.0183)" r="5.55"/>
   </g>
   <g>
    <path class="fil0 str0" d="M1.6 16.02c9.51,-7.22 19.03,-14.45 28.54,-14.45 9.51,0 19.03,7.22 28.54,14.45"/>
    <circle class="fil1 str1" transform="matrix(0.154115 0.154115 -0.154115 0.154115 58.4205 15.8183)" r="5.55"/>
    <circle class="fil1 str1" transform="matrix(0.154115 0.154115 -0.154115 0.154115 1.59671 16.0183)" r="5.55"/>
   </g>
  </g>
  <circle class="fil1" cx="29.53" cy="15.35" r="7.68"/>
 </g>
</svg>
